# xmcd
#
# Track frame offsets: 
#        150
#        12150
#        24013
#        35987
#        49452
#        66393
#        79406
#        91528
#
# Disc length: 1385 seconds
#
# Revision: 0
# Processed by: cddbd v1.5.2PL0 Copyright (c) Steve Scherf et al.
# Submitted via: ExactAudioCopy v0.99pb4
#
DISCID=60056708
DTITLE=Various Artist - Beer Drinkin' Songs
DYEAR=1984
DGENRE=Classic Country
TTITLE0=Moe and Joe - Two Beers Away
TTITLE1=Ray Price - Bubbles In My Beer
TTITLE2=David Allan Coe - You Can Count on Beer
TTITLE3=Mickey Gilley - Don't the Girls All Get Prettier at Closing Ti
TTITLE3=me
TTITLE4=George Jones - Bartender's Blues
TTITLE5=Lacy J. Dalton and Bobby Bare - Beer Drinkin' Christian
TTITLE6=Johnny Paycheck - Fifteen Beers
TTITLE7=Moe Bandy - Barstool Mountain
EXTD=
EXTT0=
EXTT1=
EXTT2=
EXTT3=
EXTT4=
EXTT5=
EXTT6=
EXTT7=
PLAYORDER=
